<?xml version="1.0" encoding="UTF-8" standalone="no"?>
<!-- Created with Inkscape (http://www.inkscape.org/) -->

<svg
   width="533.50458mm"
   height="110.55413mm"
   viewBox="0 0 533.50459 110.55413"
   version="1.1"
   id="svg1"
   xml:space="preserve"
   xmlns="http://www.w3.org/2000/svg"
   xmlns:svg="http://www.w3.org/2000/svg"><defs
     id="defs1"><clipPath
       clipPathUnits="userSpaceOnUse"
       id="clipPath14"><path
         d="m 468.75,366.89111 h 625 v 575 h -625 z"
         transform="matrix(0.28882719,0,0,0.2893913,-135.79624,-106.1751)"
         clip-rule="evenodd"
         id="path14" /></clipPath></defs><g
     id="g9"
     transform="matrix(0.26458333,0,0,0.26458334,1406.0472,-50.32999)"
     style="fill:#ffffff"><g
       id="g14"
       transform="matrix(3.5451806,0,0,3.5451806,-6742.2189,-791.57132)"
       style="fill:#ffffff"><g
         id="g15"
         style="fill:#ffffff" /><path
         id="path15"
         d="m 3.7343764,-1.017466 v -35.093751 c 0,-0.664063 0.3359375,-1 1.0156251,-1 h 1.75 c 0.6757813,0 1.0156251,-0.335938 1.0156251,-1.015626 v -1.171875 c 0,-0.675781 0.3359375,-1.015625 1.015625,-1.015625 h 1.1718751 c 0.6757813,0 1.0156253,-0.335937 1.0156253,-1.015625 v -1.171875 c 0,-0.675781 0.335937,-1.015625 1.015625,-1.015625 h 1.171875 c 0.675781,0 1.015625,-0.335937 1.015625,-1.015625 v -1.171875 c 0,-0.675781 0.335937,-1.015625 1.015625,-1.015625 h 0.53125 c 0.675781,0 1.015625,-0.335937 1.015625,-1.015625 v -1.171875 c 0,-0.675781 0.332031,-1.015625 1,-1.015625 h 17.234376 c 0.675781,0 1.015625,0.339844 1.015625,1.015625 v 1.171875 c 0,0.679688 0.335937,1.015625 1.015625,1.015625 h 1.171875 c 0.664062,0 1,0.339844 1,1.015625 v 44.687502 c 0,0.67968757 -0.335938,1.01562508 -1,1.01562508 H 25.546877 c -0.679687,0 -1.015625,-0.33593751 -1.015625,-1.01562508 v -16.953126 c 0,-0.675781 -0.339843,-1.015625 -1.015625,-1.015625 h -1.171875 c -0.679687,0 -1.015625,0.339844 -1.015625,1.015625 v 1.171875 c 0,0.679688 -0.339844,1.015625 -1.015625,1.015625 h -1.171875 c -0.679687,0 -1.015625,0.339844 -1.015625,1.015625 v 13.750001 c 0,0.67968757 -0.335937,1.01562508 -1,1.01562508 H 4.7500015 c -0.6796876,0 -1.0156251,-0.33593751 -1.0156251,-1.01562508 z M 19.140627,-21.861217 h 1.171875 c 0.675781,0 1.015625,-0.335937 1.015625,-1.015625 v -1.171875 c 0,-0.675781 0.335938,-1.015625 1.015625,-1.015625 h 1.171875 c 0.675782,0 1.015625,-0.335937 1.015625,-1.015625 v -19.625001 c 0,-0.675781 -0.339843,-1.015625 -1.015625,-1.015625 h -1.171875 c -0.679687,0 -1.015625,0.339844 -1.015625,1.015625 v 1.171875 c 0,0.679688 -0.339844,1.015625 -1.015625,1.015625 h -1.171875 c -0.679687,0 -1.015625,0.339844 -1.015625,1.015625 v 19.625001 c 0,0.679688 0.335938,1.015625 1.015625,1.015625 z m 27.257814,20.843751 v -49.484377 c 0,-0.675781 0.335937,-1.015625 1.015625,-1.015625 h 12.375 c 0.664063,0 1,0.339844 1,1.015625 v 49.484377 c 0,0.67968757 -0.335937,1.01562508 -1,1.01562508 h -12.375 c -0.679688,0 -1.015625,-0.33593751 -1.015625,-1.01562508 z m 21.863282,0 v -49.484377 c 0,-0.675781 0.335937,-1.015625 1.015625,-1.015625 h 12.375 c 0.664063,0 1,0.339844 1,1.015625 v 49.484377 c 0,0.67968757 -0.335937,1.01562508 -1,1.01562508 h -12.375 c -0.679688,0 -1.015625,-0.33593751 -1.015625,-1.01562508 z m 41.585937,0 v -1.171875 c 0,-0.6757813 -0.33594,-1.015625 -1,-1.015625 h -1.17187 c -0.67969,0 -1.01563,-0.3359376 -1.01563,-1.0156251 v -1.171875 c 0,-0.6757813 -0.33984,-1.0156251 -1.01562,-1.0156251 h -1.17188 c -0.67969,0 -1.01562,-0.3320312 -1.01562,-1 V -42.501843 c 0,-0.675781 0.33593,-1.015625 1.01562,-1.015625 h 1.17188 c 0.67578,0 1.01562,-0.335937 1.01562,-1.015625 v -1.171875 c 0,-0.675781 0.33594,-1.015625 1.01563,-1.015625 h 1.17187 c 0.66406,0 1,-0.335937 1,-1.015625 v -1.171875 c 0,-0.675781 0.33594,-1.015625 1.01563,-1.015625 h 22.71875 c 0.71875,0 1.07812,0.359375 1.07812,1.078125 v 1.0625 c 0,0.710938 0.35157,1.0625 1.0625,1.0625 h 1.85938 c 0.70703,0 1.0625,0.355469 1.0625,1.0625 v 9.078126 c 0,0.710937 -0.35547,1.0625 -1.0625,1.0625 h -9.0625 c -0.71094,0 -1.0625,-0.351563 -1.0625,-1.0625 v -1.125 c 0,-0.675782 -0.33985,-1.015626 -1.01563,-1.015626 h -1.125 c -0.71093,0 -1.0625,-0.351562 -1.0625,-1.0625 v -5.921875 c 0,-0.675781 -0.33984,-1.015625 -1.01562,-1.015625 h -1.17188 c -0.67968,0 -1.01562,0.339844 -1.01562,1.015625 v 1.171875 c 0,0.679688 -0.33985,1.015625 -1.01563,1.015625 h -1.17187 c -0.67969,0 -1.01563,0.339844 -1.01563,1.015625 v 35.0937518 c 0,0.6679688 0.33594,1 1.01563,1 h 1.17187 c 0.67578,0 1.01563,0.3398438 1.01563,1.0156251 v 1.171875 c 0,0.6796875 0.33594,1.0156251 1.01562,1.0156251 h 1.17188 c 0.67578,0 1.01562,-0.3359376 1.01562,-1.0156251 v -9.1093749 c 0,-0.718751 0.35157,-1.078126 1.0625,-1.078126 h 12.26563 c 0.70703,0 1.0625,0.359375 1.0625,1.078126 v 9.0624999 c 0,0.7109375 -0.35547,1.0625001 -1.0625,1.0625001 h -1.0625 c -0.71094,0 -1.0625,0.3554687 -1.0625,1.0625 v 1.078125 c 0,0.71093757 -0.35938,1.06250008 -1.07813,1.06250008 h -23.51562 c -0.67969,0 -1.01563,-0.33593751 -1.01563,-1.01562508 z m 35.73828,0 v -49.484377 c 0,-0.675781 0.33594,-1.015625 1.01563,-1.015625 h 12.375 c 0.66406,0 1,0.339844 1,1.015625 v 15.562501 c 0,0.542968 0.26953,0.8125 0.8125,0.8125 0.53125,0 0.79688,-0.269532 0.79688,-0.8125 v -1.375 c 0,-0.675782 0.33593,-1.015625 1.01562,-1.015625 h 13.96875 c 0.67578,0 1.01563,0.339843 1.01563,1.015625 v 1.171875 c 0,0.679687 0.33593,1.015625 1.01562,1.015625 h 1.17188 c 0.28125,0 0.42187,0 0.42187,0 0,0 -0.14062,0 -0.42187,0 h -1.17188 c -0.29297,0 -0.4375,0 -0.4375,0 0,0 0.14453,0 0.4375,0 h 1.17188 c 0.66406,0 1,0.339843 1,1.015625 v 32.093751 c 0,0.67968757 -0.33594,1.01562508 -1,1.01562508 h -12.375 c -0.67969,0 -1.01563,-0.33593751 -1.01563,-1.01562508 v -32.093751 c 0,-0.675782 -0.33984,-1.015625 -1.01562,-1.015625 h -1.17188 c -0.67969,0 -1.01562,0.339843 -1.01562,1.015625 v 1.171875 c 0,0.667969 -0.33985,1 -1.01563,1 h -1.17187 c -0.67969,0 -1.01563,0.339844 -1.01563,1.015625 v 28.906251 c 0,0.67968757 -0.33594,1.01562508 -1,1.01562508 h -12.375 c -0.67969,0 -1.01563,-0.33593751 -1.01563,-1.01562508 z m 42.66407,0 v -35.296876 c 0,-0.675782 0.33594,-1.015625 1.01562,-1.015625 h 7.5625 c 0.67579,0 1.01563,0.339843 1.01563,1.015625 v 4.375 c 0,0.667969 0.33594,1 1.01562,1 h 1.17188 c 0.67578,0 1.01562,-0.332031 1.01562,-1 v -1.171875 c 0,-0.675782 0.33594,-1.015625 1.01563,-1.015625 h 1.17187 c 0.67579,0 1.01563,-0.335938 1.01563,-1.015625 v -1.171875 c 0,-0.675782 0.33594,-1.015625 1.01562,-1.015625 h 9.17188 c 0.67578,0 1.01563,0.339843 1.01563,1.015625 v 1.171875 c 0,0.679687 0.33203,1.015625 1,1.015625 h 1.17187 c 0.28906,0 0.4375,0 0.4375,0 0,0 -0.14844,0 -0.4375,0 h -1.17187 c -0.28125,0 -0.42188,0 -0.42188,0 0,0 0.14063,0 0.42188,0 h 1.17187 c 0.67578,0 1.01563,0.339843 1.01563,1.015625 v 7.359375 c 0,0.667969 -0.33985,1 -1.01563,1 h -10.76563 c -0.67968,0 -1.01562,-0.332031 -1.01562,-1 v -4.171875 c 0,-0.675781 -0.33984,-1.015625 -1.01563,-1.015625 h -1.17187 c -0.67969,0 -1.01563,0.339844 -1.01563,1.015625 v 28.906251 c 0,0.67968757 -0.33593,1.01562508 -1,1.01562508 h -12.375 c -0.67968,0 -1.01562,-0.33593751 -1.01562,-1.01562508 z m 35.19531,0 v -35.296876 c 0,-0.675782 0.33594,-1.015625 1.01563,-1.015625 h 12.375 c 0.66406,0 1,0.339843 1,1.015625 v 35.296876 c 0,0.67968757 -0.33594,1.01562508 -1,1.01562508 h -12.375 c -0.67969,0 -1.01563,-0.33593751 -1.01563,-1.01562508 z m 1.59375,-40.531252 v -0.109375 c 0,-0.664062 -0.37109,-1 -1.10937,-1 -0.67969,0 -1.01563,-0.335937 -1.01563,-1.015625 v -4.90625 c 0,-0.675781 0.36719,-1.015625 1.10938,-1.015625 0.67578,0 1.01562,-0.375 1.01562,-1.125 0,-0.675781 0.33594,-1.015625 1.01563,-1.015625 h 9.17187 c 0.67578,0 1.01563,0.375 1.01563,1.125 0,0.679688 0.375,1.015625 1.125,1.015625 0.67578,0 1.01562,0.339844 1.01562,1.015625 v 4.90625 c 0,0.679688 -0.375,1.015625 -1.125,1.015625 -0.67968,0 -1.01562,0.371094 -1.01562,1.109375 0,0.679688 -0.33985,1.015625 -1.01563,1.015625 h -9.17187 c -0.67969,0 -1.01563,-0.335937 -1.01563,-1.015625 z m 22.94141,40.531252 v -1.171875 c 0,-0.6757813 -0.33984,-1.015625 -1.01562,-1.015625 h -1.17188 c -0.67969,0 -1.01562,-0.3359376 -1.01562,-1.0156251 v -9.1718749 c 0,-0.675782 0.33593,-1.015626 1.01562,-1.015626 h 12.35938 c 0.67578,0 1.01562,0.339844 1.01562,1.015626 v 9.1718749 c 0,0.6796875 0.33594,1.0156251 1.01563,1.0156251 h 1.17187 c 0.67578,0 1.01563,-0.3359376 1.01563,-1.0156251 v -1.171875 c 0,-0.6757813 0.33593,-1.0156251 1.01562,-1.0156251 h 1.21875 c 0.67578,0 1.01563,-0.3320312 1.01563,-1 v -5.3437498 c 0,-0.675782 -0.33985,-1.015625 -1.01563,-1.015625 h -1.17187 c -0.67969,0 -1.01563,-0.332032 -1.01563,-1.000001 v -1.171875 c 0,-0.675781 -0.33594,-1.015625 -1,-1.015625 h -12.4375 c -0.66797,0 -1,-0.335937 -1,-1.015625 v -1.171875 c 0,-0.675781 -0.33984,-1.015625 -1.01562,-1.015625 h -1.17188 c -0.67969,0 -1.01562,-0.335937 -1.01562,-1.015625 v -11.9375 c 0,-0.675782 0.33593,-1.015625 1.01562,-1.015625 h 0.79688 c 0.67578,0 1.01562,-0.335938 1.01562,-1.015625 v -1.171875 c 0,-0.675782 0.33594,-1.015625 1.01563,-1.015625 h 26.60937 c 0.66406,0 1,0.339843 1,1.015625 v 1.171875 c 0,0.679687 0.33594,1.015625 1.01563,1.015625 h 1.17187 c 0.67578,0 1.01563,0.339843 1.01563,1.015625 v 9.171875 c 0,0.667969 -0.33985,1 -1.01563,1 h -8.64062 c -0.66797,0 -1,-0.332031 -1,-1 v -1.1875 c 0,-0.664062 -0.33985,-1 -1.01563,-1 h -1.17187 c -0.67969,0 -1.01563,-0.335938 -1.01563,-1.015625 v -5.96875 c 0,-0.675782 -0.33984,-1.015625 -1.01562,-1.015625 h -1.17188 c -0.67969,0 -1.01562,0.339843 -1.01562,1.015625 v 1.171875 c 0,0.667969 -0.33985,1 -1.01563,1 h -1.17187 c -0.67969,0 -1.01563,0.339844 -1.01563,1.015625 v 5.546875 c 0,0.679688 0.33594,1.015625 1.01563,1.015625 h 1.17187 c 0.67578,0 1.01563,0.339844 1.01563,1.015625 v 1.171875 c 0,0.679688 0.33593,1.015625 1.01562,1.015625 h 11.89063 c 0.67578,0 1.01562,0.339844 1.01562,1.015625 v 1.171875 c 0,0.679688 0.33594,1.015625 1.01563,1.015625 h 1.17187 c 0.67578,0 1.01563,0.339844 1.01563,1.015625 v 11.7187509 c 0,0.6796875 -0.33985,1.0156251 -1.01563,1.0156251 h -1.17187 c -0.67969,0 -1.01563,0.3398437 -1.01563,1.015625 v 1.171875 c 0,0.67968757 -0.33984,1.01562508 -1.01562,1.01562508 h -26.29688 c -0.66797,0 -1,-0.33593751 -1,-1.01562508 z m 44.25391,0 v -1.171875 c 0,-0.6757813 -0.33985,-1.015625 -1.01563,-1.015625 h -1.17187 c -0.67969,0 -1.01563,-0.3359376 -1.01563,-1.0156251 V -33.173717 c 0,-0.675782 -0.33593,-1.015625 -1,-1.015625 h -1.71875 c -0.66797,0 -1,-0.335938 -1,-1.015625 v -1.109375 c 0,-0.675782 0.33203,-1.015625 1,-1.015625 h 1.71875 c 0.66407,0 1,-0.335938 1,-1.015626 v -7.40625 c 0,-0.675781 0.33594,-1.015625 1.01563,-1.015625 h 12.375 c 0.67578,0 1.01562,0.339844 1.01562,1.015625 v 7.40625 c 0,0.679688 0.33594,1.015626 1.01563,1.015626 h 5.375 c 0.67578,0 1.01562,0.339843 1.01562,1.015625 v 1.109375 c 0,0.679687 -0.33984,1.015625 -1.01562,1.015625 h -5.375 c -0.67969,0 -1.01563,0.339843 -1.01563,1.015625 v 28.9531259 c 0,0.6796875 0.33594,1.0156251 1.01563,1.0156251 h 1.17187 c 0.67579,0 1.01563,-0.3359376 1.01563,-1.0156251 v -5.4375002 c 0,-0.6757817 0.33594,-1.0156247 1.01562,-1.0156247 h 8.625 c 0.67579,0 1.01563,0.339843 1.01563,1.0156247 v 5.4375002 c 0,0.6796875 -0.33984,1.0156251 -1.01563,1.0156251 h -2.76562 c -0.67969,0 -1.01563,0.3398437 -1.01563,1.015625 v 1.171875 c 0,0.67968757 -0.33984,1.01562508 -1.01562,1.01562508 h -18.23438 c -0.67968,0 -1.01562,-0.33593751 -1.01562,-1.01562508 z m 29.33594,0 v -35.296876 c 0,-0.675782 0.33593,-1.015625 1.01562,-1.015625 h 12.375 c 0.66407,0 1,0.339843 1,1.015625 v 35.296876 c 0,0.67968757 -0.33593,1.01562508 -1,1.01562508 h -12.375 c -0.67969,0 -1.01562,-0.33593751 -1.01562,-1.01562508 z m 1.59375,-40.531252 v -0.109375 c 0,-0.664062 -0.3711,-1 -1.10938,-1 -0.67969,0 -1.01562,-0.335937 -1.01562,-1.015625 v -4.90625 c 0,-0.675781 0.36718,-1.015625 1.10937,-1.015625 0.67578,0 1.01563,-0.375 1.01563,-1.125 0,-0.675781 0.33593,-1.015625 1.01562,-1.015625 h 9.17188 c 0.67578,0 1.01562,0.375 1.01562,1.125 0,0.679688 0.375,1.015625 1.125,1.015625 0.67578,0 1.01563,0.339844 1.01563,1.015625 v 4.90625 c 0,0.679688 -0.375,1.015625 -1.125,1.015625 -0.67969,0 -1.01563,0.371094 -1.01563,1.109375 0,0.679688 -0.33984,1.015625 -1.01562,1.015625 h -9.17188 c -0.67969,0 -1.01562,-0.335937 -1.01562,-1.015625 z m 38.98828,24.531251 h -4.375 c -0.67969,0 -1.01563,0.339844 -1.01563,1.015625 v 11.7812509 c 0,0.6796875 0.33594,1.0156251 1.01563,1.0156251 h 1.17187 c 0.67579,0 1.01563,-0.3359376 1.01563,-1.0156251 v -1.171875 c 0,-0.6757813 0.33594,-1.0156251 1.01563,-1.0156251 h 1.17187 c 0.67578,0 1.01563,-0.3320312 1.01563,-1 v -8.5937508 c 0,-0.675781 -0.33985,-1.015625 -1.01563,-1.015625 z m -16.59375,16.000001 v -1.171875 c 0,-0.6757813 -0.33594,-1.015625 -1,-1.015625 h -1.1875 c -0.66797,0 -1,-0.3359376 -1,-1.0156251 V -16.001842 c 0,-0.675781 0.33203,-1.015625 1,-1.015625 h 1.1875 c 0.66406,0 1,-0.335937 1,-1.015625 v -1.171875 c 0,-0.675781 0.33594,-1.015625 1.01562,-1.015625 h 12.375 c 0.67579,0 1.01563,-0.332031 1.01563,-1 v -1.171875 c 0,-0.675781 0.33594,-1.015625 1.01563,-1.015625 h 2.76562 c 0.67578,0 1.01563,-0.335937 1.01563,-1.015625 v -8.6875 c 0,-0.675782 -0.33985,-1.015625 -1.01563,-1.015625 h -2.76562 c -0.67969,0 -1.01563,0.339843 -1.01563,1.015625 v 4.359375 c 0,0.679687 -0.33984,1.015625 -1.01563,1.015625 h -1.17187 c -0.67969,0 -1.01563,0.339844 -1.01563,1.015625 v 2.78125 c 0,0.667969 -0.33984,1 -1.01562,1 h -10.76563 c -0.67968,0 -1.01562,-0.332031 -1.01562,-1 v -9.171875 c 0,-0.675782 0.33594,-1.015625 1.01562,-1.015625 h 1.96875 c 0.67579,0 1.01563,-0.335938 1.01563,-1.015625 v -1.171875 c 0,-0.675782 0.33594,-1.015625 1.01562,-1.015625 h 24.37501 c 0.66406,0 1,0.339843 1,1.015625 v 1.171875 c 0,0.679687 0.33593,1.015625 1.01562,1.015625 h 1.17188 c 0.67578,0 1.01562,0.339843 1.01562,1.015625 v 32.093751 c 0,0.67968757 -0.33984,1.01562508 -1.01562,1.01562508 h -9.17188 c -0.67969,0 -1.01562,-0.33593751 -1.01562,-1.01562508 v -1.171875 c 0,-0.6757813 -0.33594,-1.015625 -1,-1.015625 h -1.17188 c -0.67969,0 -1.01562,0.3398437 -1.01562,1.015625 v 1.171875 c 0,0.67968757 -0.33985,1.01562508 -1.01563,1.01562508 h -15.57813 c -0.67968,0 -1.01562,-0.33593751 -1.01562,-1.01562508 z m 39.47266,0 v -35.296876 c 0,-0.675782 0.33593,-1.015625 1.01562,-1.015625 h 7.5625 c 0.67578,0 1.01563,0.339843 1.01563,1.015625 v 4.375 c 0,0.667969 0.33594,1 1.01562,1 h 1.17188 c 0.67578,0 1.01562,-0.332031 1.01562,-1 v -1.171875 c 0,-0.675782 0.33594,-1.015625 1.01563,-1.015625 h 1.17187 c 0.67578,0 1.01563,-0.335938 1.01563,-1.015625 v -1.171875 c 0,-0.675782 0.33594,-1.015625 1.01562,-1.015625 h 13.96875 c 0.67578,0 1.01563,0.339843 1.01563,1.015625 v 1.171875 c 0,0.679687 0.33594,1.015625 1.01562,1.015625 h 1.17188 c 0.28125,0 0.42187,0 0.42187,0 0,0 -0.14062,0 -0.42187,0 h -1.17188 c -0.29297,0 -0.4375,0 -0.4375,0 0,0 0.14453,0 0.4375,0 h 1.17188 c 0.66406,0 1,0.339843 1,1.015625 v 32.093751 c 0,0.67968757 -0.33594,1.01562508 -1,1.01562508 h -12.375 c -0.67969,0 -1.01563,-0.33593751 -1.01563,-1.01562508 v -32.093751 c 0,-0.675782 -0.33984,-1.015625 -1.01562,-1.015625 h -1.17188 c -0.67968,0 -1.01562,0.339843 -1.01562,1.015625 v 1.171875 c 0,0.667969 -0.33985,1 -1.01563,1 h -1.17187 c -0.67969,0 -1.01563,0.339844 -1.01563,1.015625 v 28.906251 c 0,0.67968757 -0.33593,1.01562508 -1,1.01562508 h -12.375 c -0.67969,0 -1.01562,-0.33593751 -1.01562,-1.01562508 z m 0,0"
         style="fill:#ffffff;fill-opacity:1;fill-rule:nonzero;stroke:none"
         aria-label=" All Christian"
         transform="translate(551.35937,358.43543)" /><g
         id="g16"
         style="fill:#ffffff" /></g></g><g
     id="g4"
     transform="matrix(0.16950053,0,0,0.16950053,739.92803,63.62183)"
     style="fill:#ffffff"><path
       id="path1"
       d="M 164.67,45.470001 166.3,0 120.83,1.63 89.830002,32.630001 58.830002,1.6300011 13.43,0 15,45.470001 l 31,31 -22.66,22.650002 -5,-5 -5.649999,5.659996 L 17.639999,104.78 31.07,118.21 10.57,138.72 5.6199999,133.77 0,139.42999 l 5,4.95 17,17 4.950001,5 5.66,-5.66 -5,-4.95 20.510002,-20.5 13.43,13.42999 4.949997,4.95 5.650002,-5.66001 -5,-4.94999 22.690002,-22.68 L 112.54,143 l -5,4.95 5.66,5.66 18.38,-18.38 20.51,20.5 -4.95,4.94999 5.64999,5.66001 4.95,-5 17,-17 5,-4.95 -5.64999,-5.66 -4.95,4.94999 -20.51,-20.5 18.37,-18.349988 -5.66,-5.660004 -5,5 -22.65,-22.729996 z M 22.93,42 21.73,8.3000002 l 33.720001,1.21 28.749996,28.7499978 -13.43,13.430001 L 42.330002,23.24 36.669998,28.9 65.110001,57.349998 51.68,70.779999 Z m -1,108 -5.66,-5.64999 20.509999,-20.51001 5.66,5.66 z m 31.82,-20.5 -2.91,-2.91 -2.75,-2.75 95,-95.000004 -5.65,-5.66 L 106.12,54.52 87,73.610001 42.400002,118.21 29,104.78 73.599998,60.18 95.510002,38.259998 124.26,9.5100002 158,8.3000002 156.78,42 61.52,137.3 Z M 109,101.19 131.67999,123.87 118.2,137.31 95.510002,114.62 Z m 54.5,43.19 -4.11,4.11 -1.60001,1.51 -20.5,-20.5 5.65,-5.66 z m -12.73,-39.59999 -13.43,13.43 L 114.6,95.529999 128,82.099998 Z"
       style="fill:#ffffff;fill-opacity:1;fill-rule:nonzero;stroke:none"
       transform="matrix(3.9278081,0,0,3.9201515,-4365.3434,-375.34885)"
       clip-path="url(#clipPath14)" /><g
       id="g3"
       transform="matrix(3.5451806,0,0,3.5451806,-6742.2189,-791.57132)"
       style="fill:#ffffff"><g
         id="g1"
         style="fill:#ffffff" /><g
         id="g2"
         style="fill:#ffffff" /></g></g></svg>
